# xmcd
#
# Track frame offsets:
#	150
#	16776
#	30516
#	42921
#	54413
#	66526
#	77966
#	90030
#	101393
#	114827
#	130882
#
# Disc length: 1960 seconds
# Revision: 0
# Processed by: cddbd v1.5.2PL0 Copyright (c) Steve Scherf et al.
# Submitted via: dBpowerAMP V12.0
#
DISCID=7b07a60b
DTITLE=Andrew Vogts - Sasquatch With an Alien on Its Head
DYEAR=2017
DGENRE=Bluegrass
TTITLE0=Boxing Reel
TTITLE1=The Pig and the Devil's Eye
TTITLE2=Durang's Hornpipe
TTITLE3=Dixie
TTITLE4=Catharsis
TTITLE5=Rosin on the Gourd
TTITLE6=Sasquatch with an Alien on Its Head
TTITLE7=Bumblebee in a Jug
TTITLE8=Spider Shoe
TTITLE9=Ashokan Farewell
TTITLE10=Sadie at the Back Door
EXTD=
EXTT0=
EXTT1=
EXTT2=
EXTT3=
EXTT4=
EXTT5=
EXTT6=
EXTT7=
EXTT8=
EXTT9=
EXTT10=
PLAYORDER=
